<svg viewBox="0 0 24 24" xmlns="http://www.w3.org/2000/svg">
<path d="M12,22 A10,10 0,0,0 12,2 V4 A8,8 0,0,1 12,20 Z M6.593591825444028,20.412535328311815 A10,10 0,0,0 9.182674431585703,21.594929736144973 L9.746139545268562,19.67594378891598 A8,8 0,0,1 7.674873460355222,18.73002826264945 Z M2.9036800464548183,16.154150130018866 A10,10 0,0,0 4.442504256457418,18.54860733945285 L5.954003405165935,17.23888587156228 A8,8 0,0,1 4.722944037163854,15.323320104015094 Z M2.101785581190672,10.57685161726715 A10,10 0,0,0 2.101785581190674,13.423148382732851 L4.0814284649525385,13.138518706186282 A8,8 0,0,1 4.081428464952538,10.861481293813721 Z M4.442504256457417,5.45139266054715 A10,10 0,0,0 2.9036800464548165,7.845849869981135 L4.722944037163853,8.676679895984908 A8,8 0,0,1 5.954003405165933,6.76111412843772 Z M9.182674431585703,2.405070263855027 A10,10 0,0,0 6.593591825444026,3.5874646716881866 L7.6748734603552204,5.2699717373505495 A8,8 0,0,1 9.746139545268562,4.324056211084021 Z M10.7946,15 H12.6429 V14.4548 C12.6429,13.5343 12.9732,13.0606 14.125,12.3813 C15.3036,11.6753 16,10.7011 16,9.32473 V9.30685 C16,7.40318 14.4107,6 12.0536,6 C9.46429,6 8.08036,7.53724 8,9.5571 V9.57498 L9.83929,9.56604 H9.85714 C9.92857,8.3863 10.7232,7.64449 11.9554,7.64449 C13.1786,7.64449 13.9732,8.3863 13.9732,9.38729 V9.40516 C13.9732,10.3168 13.5893,10.8352 12.5089,11.4876 C11.2857,12.2205 10.7411,13.0248 10.7857,14.285 L10.7946,15 Z M10.8242,16.1328 V18.0026 H12.694 V16.1328 H10.8242 Z"/>
</svg>
