<svg width="136" height="72" viewBox="0 0 136 72" fill="none" xmlns="http://www.w3.org/2000/svg">
<path d="M95.4924 69.4467L68.1797 17.4817L40.8669 69.4467L36.3906 67.0948L65.9592 10.871C66.1737 10.4632 66.4957 10.1218 66.8901 9.88362C67.2846 9.64544 67.7365 9.51953 68.1973 9.51953C68.6581 9.51953 69.1102 9.64544 69.5046 9.88362C69.8991 10.1218 70.2209 10.4632 70.4355 10.871L100.009 67.0948L95.4924 69.4467Z" fill="white"/>
<path d="M68.1597 71.9096C48.6311 71.9096 32.0209 70.6653 20.1095 68.3184C7.23714 65.7895 0.980469 62.163 0.980469 57.277C0.980469 52.3911 7.23714 48.7798 20.1095 46.2356C32.0007 43.8837 48.6109 42.6445 68.1597 42.6445C87.7085 42.6445 104.293 43.8837 116.21 46.2356C129.082 48.7646 135.339 52.3911 135.339 57.277C135.339 62.163 129.082 65.7743 116.21 68.3184C104.293 70.6653 87.6883 71.9096 68.1597 71.9096ZM68.1597 47.7024C48.9396 47.7024 32.6835 48.9112 21.1211 51.1974C6.71618 54.045 6.06876 57.2669 6.06876 57.2669C6.06876 57.2669 6.71618 60.4989 21.1211 63.3364C32.6936 65.6276 48.9649 66.8365 68.1597 66.8365C87.3545 66.8365 103.631 65.6276 115.198 63.3364C129.603 60.4939 130.251 57.2669 130.251 57.2669C130.251 57.2669 129.603 54.0349 115.198 51.1974C103.631 48.9112 87.3646 47.7024 68.1597 47.7024Z" fill="white"/>
<path d="M135.318 58.0547H130.26C130.26 43.4475 124.484 30.1704 113.999 20.6666C102.74 10.4547 86.8884 5.05791 68.159 5.05791C49.4295 5.05791 33.5781 10.4547 22.3192 20.6666C11.8341 30.1704 6.05791 43.4273 6.05791 58.0547H1C1 42.0009 7.36282 27.3936 18.9201 16.9187C31.1299 5.85198 48.1549 0 68.159 0C88.163 0 105.188 5.85198 117.398 16.9187C128.95 27.3936 135.318 41.9807 135.318 58.0547Z" fill="white"/>
</svg>
