<svg width="700" height="101" viewBox="0 0 700 101" fill="none" xmlns="http://www.w3.org/2000/svg">
<path d="M292.909 75.7694L270.958 30.2451C270.559 29.4136 269.933 28.7118 269.152 28.2206C268.372 27.7294 267.468 27.4688 266.546 27.4688C265.624 27.4688 264.72 27.7294 263.94 28.2206C263.159 28.7118 262.533 29.4136 262.134 30.2451L240.112 75.7694C239.898 76.2092 239.772 76.6871 239.741 77.1756C239.711 77.6642 239.778 78.1539 239.937 78.6168C240.096 79.0797 240.345 79.5067 240.669 79.8735C240.993 80.2403 241.386 80.5397 241.826 80.7545C242.266 80.9693 242.744 81.0953 243.232 81.1255C243.721 81.1556 244.211 81.0892 244.673 80.9301C245.136 80.771 245.563 80.5222 245.93 80.1981C246.297 79.8739 246.596 79.4807 246.811 79.0408L251.931 68.3342H281.062L286.21 79.0408C286.425 79.4807 286.724 79.8739 287.091 80.1981C287.458 80.5222 287.885 80.771 288.348 80.9301C288.811 81.0892 289.3 81.1556 289.789 81.1255C290.278 81.0953 290.755 80.9693 291.195 80.7545C291.635 80.5397 292.028 80.2403 292.352 79.8735C292.677 79.5067 292.925 79.0797 293.084 78.6168C293.244 78.1539 293.31 77.6642 293.28 77.1756C293.25 76.6871 293.124 76.2092 292.909 75.7694ZM255.379 61.1398L266.518 37.8431L277.635 61.1398H255.379Z" fill="black"/>
<path d="M318.082 80.49C317.37 80.4742 316.677 80.2566 316.083 79.8627C315.49 79.4687 315.02 78.9145 314.729 78.2643C314.437 77.6142 314.336 76.8947 314.438 76.1894C314.539 75.4842 314.837 74.8221 315.3 74.2799L348.814 35.8651H318.323C317.376 35.8235 316.48 35.4177 315.825 34.7324C315.169 34.047 314.803 33.135 314.803 32.1864C314.803 31.2378 315.169 30.3257 315.825 29.6404C316.48 28.9551 317.376 28.5494 318.323 28.5078H356.334C357.319 28.5227 358.258 28.9264 358.947 29.6307C359.635 30.3351 360.017 31.2829 360.01 32.2678C360.011 33.1656 359.692 34.0345 359.11 34.7179L325.603 73.1328H356.165C356.661 73.111 357.157 73.19 357.622 73.365C358.088 73.5401 358.513 73.8075 358.872 74.1512C359.231 74.4949 359.517 74.9079 359.712 75.3651C359.907 75.8222 360.008 76.3142 360.008 76.8114C360.008 77.3085 359.907 77.8005 359.712 78.2577C359.517 78.7148 359.231 79.1278 358.872 79.4715C358.513 79.8153 358.088 80.0827 357.622 80.2578C357.157 80.4328 356.661 80.5118 356.165 80.49H318.082Z" fill="black"/>
<path d="M384.036 31.6107C384.014 31.1037 384.095 30.5974 384.273 30.1225C384.452 29.6475 384.725 29.2136 385.076 28.8471C385.427 28.4805 385.849 28.1888 386.316 27.9895C386.782 27.7902 387.285 27.6875 387.792 27.6875C388.3 27.6875 388.802 27.7902 389.269 27.9895C389.736 28.1888 390.157 28.4805 390.508 28.8471C390.859 29.2136 391.132 29.6475 391.311 30.1225C391.49 30.5974 391.571 31.1037 391.549 31.6107V77.3828C391.571 77.8898 391.49 78.3961 391.311 78.871C391.132 79.346 390.859 79.7798 390.508 80.1463C390.157 80.5129 389.736 80.8046 389.269 81.0039C388.802 81.2032 388.3 81.306 387.792 81.306C387.285 81.306 386.782 81.2032 386.316 81.0039C385.849 80.8046 385.427 80.5129 385.076 80.1463C384.725 79.7798 384.452 79.346 384.273 78.871C384.095 78.3961 384.014 77.8898 384.036 77.3828V31.6107Z" fill="black"/>
<path d="M479.17 41.3384C479.199 40.4615 479.051 39.5878 478.736 38.7692C478.42 37.9506 477.943 37.2038 477.333 36.5734C476.723 35.9429 475.992 35.4415 475.184 35.0991C474.376 34.7567 473.508 34.5802 472.631 34.5802C471.753 34.5802 470.885 34.7567 470.077 35.0991C469.269 35.4415 468.539 35.9429 467.929 36.5734C467.319 37.2038 466.841 37.9506 466.526 38.7692C466.21 39.5878 466.062 40.4615 466.091 41.3384V67.4889C466.091 71.2167 464.61 74.7919 461.974 77.4279C459.338 80.0639 455.763 81.5448 452.035 81.5448C448.308 81.5448 444.732 80.0639 442.096 77.4279C439.46 74.7919 437.979 71.2167 437.979 67.4889V41.3384C437.979 39.6031 437.29 37.9389 436.063 36.7118C434.836 35.4848 433.172 34.7955 431.436 34.7955C429.701 34.7955 428.037 35.4848 426.81 36.7118C425.583 37.9389 424.894 39.6031 424.894 41.3384V77.3811C424.916 77.8881 424.835 78.3944 424.656 78.8693C424.477 79.3443 424.204 79.7781 423.853 80.1446C423.502 80.5112 423.08 80.8029 422.614 81.0022C422.147 81.2015 421.645 81.3043 421.137 81.3043C420.63 81.3043 420.127 81.2015 419.661 81.0022C419.194 80.8029 418.772 80.5112 418.421 80.1446C418.07 79.7781 417.797 79.3443 417.618 78.8693C417.439 78.3944 417.358 77.8881 417.38 77.3811V41.5012C417.38 37.7734 418.861 34.1982 421.497 31.5622C424.133 28.9262 427.709 27.4453 431.436 27.4453C435.164 27.4453 438.74 28.9262 441.376 31.5622C444.012 34.1982 445.493 37.7734 445.493 41.5012V67.6517C445.464 68.5286 445.611 69.4022 445.927 70.2208C446.243 71.0394 446.72 71.7862 447.33 72.4167C447.94 73.0472 448.671 73.5486 449.478 73.891C450.286 74.2334 451.154 74.4098 452.032 74.4098C452.909 74.4098 453.778 74.2334 454.585 73.891C455.393 73.5486 456.124 73.0472 456.734 72.4167C457.344 71.7862 457.821 71.0394 458.137 70.2208C458.452 69.4022 458.6 68.5286 458.571 67.6517V41.5012C458.654 37.8271 460.171 34.3312 462.799 31.7618C465.426 29.1924 468.956 27.7537 472.631 27.7537C476.306 27.7537 479.835 29.1924 482.463 31.7618C485.09 34.3312 486.608 37.8271 486.69 41.5012V77.3811C486.69 78.3783 486.294 79.3347 485.589 80.0399C484.884 80.745 483.927 81.1411 482.93 81.1411C481.933 81.1411 480.977 80.745 480.271 80.0399C479.566 79.3347 479.17 78.3783 479.17 77.3811V41.3384Z" fill="black"/>
<path d="M532.285 80.4924C529.654 80.5365 527.04 80.0505 524.601 79.0636C522.161 78.0767 519.945 76.6089 518.084 74.7476C516.224 72.8864 514.757 70.6698 513.771 68.2298C512.785 65.7898 512.3 63.1763 512.345 60.5449V31.6117C512.345 30.6144 512.741 29.658 513.446 28.9529C514.151 28.2477 515.108 27.8516 516.105 27.8516C517.102 27.8516 518.058 28.2477 518.763 28.9529C519.469 29.658 519.865 30.6144 519.865 31.6117V60.6441C519.825 62.2976 520.117 63.9424 520.724 65.481C521.331 67.0197 522.24 68.421 523.398 69.6021C524.556 70.7832 525.94 71.7201 527.466 72.3573C528.992 72.9946 530.631 73.3192 532.285 73.3121H538.828C540.482 73.3192 542.121 72.9946 543.647 72.3573C545.173 71.7201 546.556 70.7832 547.714 69.6021C548.872 68.421 549.782 67.0197 550.389 65.481C550.996 63.9424 551.288 62.2976 551.248 60.6441V31.6117C551.248 30.6144 551.644 29.658 552.349 28.9529C553.055 28.2477 554.011 27.8516 555.008 27.8516C556.005 27.8516 556.962 28.2477 557.667 28.9529C558.372 29.658 558.768 30.6144 558.768 31.6117V60.5449C558.813 63.1763 558.328 65.7898 557.342 68.2298C556.356 70.6698 554.889 72.8864 553.029 74.7476C551.168 76.6089 548.952 78.0767 546.512 79.0636C544.073 80.0505 541.459 80.5365 538.828 80.4924H532.285Z" fill="black"/>
<path d="M602.494 35.8647H584.388C583.891 35.8865 583.395 35.8075 582.93 35.6324C582.464 35.4574 582.039 35.1899 581.68 34.8462C581.321 34.5024 581.035 34.0896 580.84 33.6324C580.645 33.1752 580.544 32.6832 580.544 32.186C580.544 31.6889 580.645 31.1969 580.84 30.7397C581.035 30.2825 581.321 29.8697 581.68 29.526C582.039 29.1822 582.464 28.9147 582.93 28.7397C583.395 28.5647 583.891 28.4857 584.388 28.5074H628.198C629.146 28.549 630.041 28.9547 630.697 29.6401C631.353 30.3254 631.719 31.2374 631.719 32.186C631.719 33.1346 631.353 34.0467 630.697 34.732C630.041 35.4173 629.146 35.8231 628.198 35.8647H610.049V77.3811C610.049 78.3783 609.653 79.3347 608.948 80.0398C608.243 80.745 607.287 81.1411 606.289 81.1411C605.292 81.1411 604.336 80.745 603.631 80.0398C602.925 79.3347 602.529 78.3783 602.529 77.3811L602.494 35.8647Z" fill="black"/>
<path d="M692.48 58.0636H661.423V77.3524C661.423 78.3496 661.026 79.306 660.321 80.0112C659.616 80.7163 658.66 81.1125 657.662 81.1125C656.665 81.1125 655.709 80.7163 655.004 80.0112C654.299 79.306 653.902 78.3496 653.902 77.3524V31.5803C653.902 30.5831 654.299 29.6267 655.004 28.9215C655.709 28.2164 656.665 27.8203 657.662 27.8203C658.66 27.8203 659.616 28.2164 660.321 28.9215C661.026 29.6267 661.423 30.5831 661.423 31.5803V50.8692H692.48V31.5803C692.48 30.5831 692.876 29.6267 693.581 28.9215C694.287 28.2164 695.243 27.8203 696.24 27.8203C697.237 27.8203 698.194 28.2164 698.899 28.9215C699.604 29.6267 700 30.5831 700 31.5803V77.3524C700 78.3496 699.604 79.306 698.899 80.0112C698.194 80.7163 697.237 81.1125 696.24 81.1125C695.243 81.1125 694.287 80.7163 693.581 80.0112C692.876 79.306 692.48 78.3496 692.48 77.3524V58.0636Z" fill="black"/>
<path d="M132.288 97.2223L94.0505 24.4713L55.8127 97.2223L49.5459 93.9296L90.9419 15.2163C91.2422 14.6454 91.693 14.1674 92.2452 13.8339C92.7974 13.5005 93.4302 13.3242 94.0753 13.3242C94.7204 13.3242 95.3533 13.5005 95.9055 13.8339C96.4578 14.1674 96.9083 14.6454 97.2087 15.2163L138.612 93.9296L132.288 97.2223Z" fill="black"/>
<path d="M94.0226 100.67C66.6826 100.67 43.4283 98.9283 26.7524 95.6427C8.73102 92.1022 -0.0283203 87.0251 -0.0283203 80.1847C-0.0283203 73.3444 8.73102 68.2886 26.7524 64.7268C43.4 61.4341 66.6542 59.6992 94.0226 59.6992C121.391 59.6992 144.61 61.4341 161.293 64.7268C179.314 68.2673 188.074 73.3444 188.074 80.1847C188.074 87.0251 179.314 92.0809 161.293 95.6427C144.61 98.9283 121.363 100.67 94.0226 100.67ZM94.0226 66.7803C67.1145 66.7803 44.3559 68.4726 28.1686 71.6733C8.00167 75.6599 7.09529 80.1706 7.09529 80.1706C7.09529 80.1706 8.00167 84.6954 28.1686 88.6679C44.3701 91.8756 67.1499 93.568 94.0226 93.568C120.895 93.568 143.682 91.8756 159.877 88.6679C180.044 84.6883 180.95 80.1706 180.95 80.1706C180.95 80.1706 180.044 75.6457 159.877 71.6733C143.682 68.4726 120.909 66.7803 94.0226 66.7803Z" fill="black"/>
<path d="M188.045 81.2766H180.964C180.964 60.8265 172.877 42.2386 158.198 28.9333C142.436 14.6366 120.244 7.08108 94.0226 7.08108C67.8013 7.08108 45.6093 14.6366 29.8468 28.9333C15.1678 42.2386 7.08108 60.7982 7.08108 81.2766H0C0 58.8013 8.90795 38.3511 25.0882 23.6862C42.1819 8.19277 66.0169 0 94.0226 0C122.028 0 145.863 8.19277 162.957 23.6862C179.13 38.3511 188.045 58.773 188.045 81.2766Z" fill="black"/>
</svg>
